# xmcd CD database file
#
# Track frame offsets:
#	150
#	13022
#	30202
#	44380
#	56657
#	75040
#	85210
#	98492
#	113595
#	123700
#	134747
#	146557
#
# Disc length: 2082 seconds
#
# Revision: 1
# Processed by: cddbd v1.5.1PL0 Copyright (c) Steve Scherf et al.
# Submitted via: CDex 1.51
#
DISCID=9008200c
DTITLE=Quincy Jones - Quincy's Got A Brand New Bag
DYEAR=1965
DGENRE=Jazz
TTITLE0=Ain't That Peculiar
TTITLE1=I Got You (I Feel Good)
TTITLE2=I Hear A Symphony
TTITLE3=A Lover's Concerto
TTITLE4=Baby Cakes
TTITLE5=Mohair Sam
TTITLE6=Something About You
TTITLE7=Boss Bird
TTITLE8=Hang On Sloopy
TTITLE9=Fever
TTITLE10=Harlem Nocturne
TTITLE11=Papa's Got A Brand New Bag
EXTD=YEAR: 1965
EXTT0=
EXTT1=
EXTT2=
EXTT3=
EXTT4=
EXTT5=
EXTT6=
EXTT7=
EXTT8=
EXTT9=
EXTT10=
EXTT11=
PLAYORDER=
